#!OML:ASF F:\VICON\USERDATA\INSTALL\rory3\rory3.ASF
:FULLY-SPECIFIED
:DEGREES
1540
root -0.169787 15.8693 -4.83989 -18.2304 2.14387 -712.196
lowerback 22.4583 -2.11676 -1.35301
upperback 8.79796 -2.8056 4.5823
thorax -2.57106 -1.50581 6.39815
lowerneck -19.5191 -1.06909 -8.28239
upperneck 28.5485 0.570655 2.22241
head 12.7559 -0.354832 2.36249
rclavicle 3.49861e-014 -4.77083e-014
rhumerus -39.5223 0.305122 -70.3632
rradius 92.4235
rwrist -1.97324
rhand -42.2205 14.5008
rfingers 7.12502
rthumb -15.1076 -14.9279
lclavicle 3.49861e-014 -4.77083e-014
lhumerus -38.2441 -10.5298 92.0423
lradius 77.4586
lwrist -15.7898
lhand -40.4219 16.7771
lfingers 7.12502
lthumb -13.3745 46.3278
rfemur -88.8938 -19.5317 32.1217
rtibia 139.455
rfoot 18.3763 -12.9863
rtoes 20.3365
lfemur -65.6635 56.6731 -20.7049
ltibia 135.656
lfoot -16.7017 -11.5064
ltoes -19.8143
1541
root -0.172387 15.867 -4.84361 -18.3479 2.11772 -712.181
lowerback 22.4405 -2.18908 -1.35099
upperback 8.85813 -2.89848 4.66626
thorax -2.47963 -1.55769 6.50781
lowerneck -19.3073 -1.01383 -8.35881
upperneck 28.3966 0.663806 2.18501
head 12.6451 -0.322753 2.37153
rclavicle 6.36111e-015 -3.18055e-015
rhumerus -39.0209 0.721157 -70.4134
rradius 93.1893
rwrist -1.29925
rhand -42.2276 14.9906
rfingers 7.12502
rthumb -15.1144 -14.4376
lclavicle 6.36111e-015 -3.18055e-015
lhumerus -38.1157 -10.3568 92.0564
lradius 77.2896
lwrist -15.6466
lhand -40.2895 16.3699
lfingers 7.12502
lthumb -13.2468 45.929
rfemur -88.3528 -19.571 32.0171
rtibia 139.185
rfoot 17.7376 -13.422
rtoes 22.7861
lfemur -65.2542 56.6188 -20.3292
ltibia 135.651
lfoot -16.6547 -11.7768
ltoes -19.8275
1542
root -0.175699 15.8645 -4.84831 -18.4791 2.17664 -712.028
lowerback 22.477 -2.22653 -1.4827
upperback 8.89618 -2.97367 4.70878
thorax -2.43615 -1.60113 6.64932
lowerneck -19.1798 -0.974702 -8.40828
upperneck 28.3164 0.730308 2.15887
head 12.5826 -0.299852 2.37798
rclavicle -5.80451e-014 1.11319e-013
rhumerus -38.5822 1.04816 -70.4429
rradius 93.9286
rwrist -0.571627
rhand -42.0828 15.3374
rfingers 7.12502
rthumb -14.975 -14.1012
lclavicle -5.80451e-014 1.11319e-013
lhumerus -38.0608 -10.2975 92.1017
lradius 77.215
lwrist -15.4434
lhand -40.321 16.1254
lfingers 7.12502
lthumb -13.2772 45.6825
rfemur -87.904 -19.7466 31.7509
rtibia 138.886
rfoot 17.2904 -13.2993
rtoes 25.927
lfemur -64.6678 56.5085 -19.9841
ltibia 135.641
lfoot -16.5831 -12.1914
ltoes -19.0054
1543
root -0.178962 15.8607 -4.85617 -18.5477 2.3265 -711.838
lowerback 22.5894 -2.2443 -1.61525
upperback 8.83362 -3.02017 4.70847
thorax -2.54661 -1.62274 6.74634
lowerneck -19.1437 -0.979707 -8.29771
upperneck 28.4078 0.716195 2.05205
head 12.6143 -0.311258 2.31734
rclavicle 9.54166e-015 1.59028e-014
rhumerus -38.4412 1.30661 -70.4578
rradius 94.8582
rwrist 0.141485
rhand -41.828 15.4866
rfingers 7.12502
rthumb -14.7295 -13.9701
lclavicle 9.54166e-015 1.59028e-014
lhumerus -38.1786 -10.4819 92.149
lradius 77.2434
lwrist -15.2368
lhand -40.4373 15.9567
lfingers 7.12502
lthumb -13.3893 45.5064
rfemur -87.5126 -19.9908 31.3948
rtibia 138.486
rfoot 16.8474 -13.1436
rtoes 26.8846
lfemur -64.48 56.0985 -20.1139
ltibia 135.591
lfoot -16.4033 -12.3464
ltoes -18.2754
1544
root -0.181066 15.8485 -4.8626 -18.5714 2.47837 -711.769
lowerback 22.5739 -2.28827 -1.62791
upperback 8.83922 -3.07837 4.7343
thorax -2.52262 -1.65299 6.79455
lowerneck -19.168 -0.987167 -8.20065
upperneck 28.442 0.696438 1.98504
head 12.635 -0.319478 2.27271
rclavicle 5.56597e-015 1.90833e-014
rhumerus -38.2258 1.56893 -70.4909
rradius 95.8509
rwrist 0.796483
rhand -41.6068 15.3089
rfingers 7.12502
rthumb -14.5163 -14.1632
lclavicle 5.56597e-015 1.90833e-014
lhumerus -38.1847 -10.8418 92.1495
lradius 77.3529
lwrist -14.8973
lhand -40.4413 16.0081
lfingers 7.12502
lthumb -13.3931 45.5576
rfemur -86.8734 -20.239 31.1821
rtibia 138.096
rfoot 15.6913 -13.5073
rtoes 25.9748
lfemur -64.684 55.5289 -20.378
ltibia 135.609
lfoot -16.1232 -12.3828
ltoes -17.7998
1545
root -0.182908 15.8312 -4.86389 -18.5814 2.60792 -711.747
lowerback 22.4094 -2.38408 -1.59605
upperback 8.95161 -3.20127 4.751
thorax -2.30262 -1.7222 6.80742
lowerneck -19.2208 -0.934893 -8.19097
upperneck 28.2819 0.747799 2.06065
head 12.5763 -0.280759 2.30582
rclavicle -2.38542e-015 3.81667e-014
rhumerus -37.7285 1.87435 -70.6438
rradius 96.6031
rwrist 1.30358
rhand -41.3425 15.5704
rfingers 7.12502
rthumb -14.2617 -13.9199
lclavicle -2.38542e-015 3.81667e-014
lhumerus -37.9506 -11.0887 92.0818
lradius 77.4058
lwrist -14.5332
lhand -40.4137 16.2747
lfingers 7.12502
lthumb -13.3665 45.8259
rfemur -86.0564 -20.4699 31.1141
rtibia 137.728
rfoot 13.8342 -14.3177
rtoes 24.139
lfemur -64.9041 54.9665 -20.5217
ltibia 135.688
lfoot -15.7999 -12.5
ltoes -17.2857
1546
root -0.188906 15.8203 -4.86593 -18.6866 2.72883 -711.719
lowerback 22.3898 -2.45881 -1.65938
upperback 9.03762 -3.312 4.81033
thorax -2.17559 -1.78578 6.93009
lowerneck -19.2871 -0.893734 -8.22975
upperneck 28.253 0.82646 2.06029
head 12.5734 -0.249486 2.32473
rclavicle 2.38542e-015 2.54444e-014
rhumerus -37.2726 2.4064 -70.743
rradius 97.3001
rwrist 1.73564
rhand -41.2456 16.0635
rfingers 7.12502
rthumb -14.1683 -13.4333
lclavicle 2.38542e-015 2.54444e-014
lhumerus -37.736 -11.3186 92.0986
lradius 77.3986
lwrist -14.2339
lhand -40.44 16.2923
lfingers 7.12502
lthumb -13.3919 45.8418
rfemur -85.2744 -20.6153 31.1228
rtibia 137.321
rfoot 12.1662 -15.2512
rtoes 22.9145
lfemur -64.8016 54.5559 -20.4228
ltibia 135.701
lfoot -15.4519 -12.6998
ltoes -16.9607
1547
root -0.19496 15.8136 -4.87067 -18.7956 2.91607 -711.702
lowerback 22.3952 -2.52964 -1.67034
upperback 9.09491 -3.40602 4.84281
thorax -2.09963 -1.83686 6.99167
lowerneck -19.5133 -0.915721 -8.10685
upperneck 28.4814 0.8112 1.95714
head 12.7151 -0.264013 2.26764
rclavicle -2.62396e-014 6.36111e-014
rhumerus -36.9958 2.80032 -70.8686
rradius 98.0949
rwrist 2.29871
rhand -41.0759 16.3123
rfingers 7.12502
rthumb -14.0048 -13.1959
lclavicle -2.62396e-014 6.36111e-014
lhumerus -37.613 -11.6656 92.107
lradius 77.4567
lwrist -14.2161
lhand -40.3599 16.3237
lfingers 7.12502
lthumb -13.3147 45.8783
rfemur -84.7656 -20.8765 31.2004
rtibia 137.038
rfoot 10.8546 -16.3365
rtoes 24.7231
lfemur -64.7459 54.0198 -20.3621
ltibia 135.685
lfoot -14.8684 -12.8435
ltoes -17.3035
1548
root -0.200915 15.8064 -4.87451 -18.8206 3.08755 -711.712
lowerback 22.2809 -2.60252 -1.62275
upperback 9.12731 -3.49206 4.86704
thorax -1.99715 -1.88245 7.0008
lowerneck -19.665 -0.934375 -7.96933
upperneck 28.6461 0.776219 1.88733
head 12.8165 -0.27896 2.21574
rclavicle 1.11319e-014 5.08889e-014
rhumerus -36.6727 2.9975 -71.0865
rradius 98.7528
rwrist 2.8848
rhand -40.8706 16.4202
rfingers 7.12502
rthumb -13.8069 -13.1016
lclavicle 1.11319e-014 5.08889e-014
lhumerus -37.5795 -11.9971 92.0993
lradius 77.5892
lwrist -14.2334
lhand -40.1612 16.4223
lfingers 7.12502
lthumb -13.1232 45.9894
rfemur -84.6889 -21.1446 31.4817
rtibia 137.048
rfoot 9.98503 -17.6469
rtoes 28.7529
lfemur -64.7477 53.3798 -20.2578
ltibia 135.665
lfoot -14.1388 -13.3705
ltoes -17.8424
1549
root -0.209577 15.8019 -4.87383 -18.862 3.26611 -711.693
lowerback 22.1406 -2.64676 -1.65244
upperback 9.14584 -3.55707 4.88617
thorax -1.89476 -1.9192 7.04272
lowerneck -19.47 -0.918278 -7.89945
upperneck 28.5203 0.74146 1.9263
head 12.7256 -0.277215 2.20979
rclavicle -1.27222e-014 -3.18055e-014
rhumerus -36.4828 3.30212 -71.3765
rradius 99.4651
rwrist 3.54969
rhand -41.1199 16.1571
rfingers 7.12502
rthumb -14.0471 -13.3482
lclavicle -1.27222e-014 -3.18055e-014
lhumerus -37.6341 -12.4446 92.0844
lradius 77.7618
lwrist -14.2151
lhand -40.2198 16.5056
lfingers 7.12502
lthumb -13.1797 46.069
rfemur -84.88 -21.4702 31.8582
rtibia 137.296
rfoot 9.61053 -18.6972
rtoes 31.3908
lfemur -64.5278 52.734 -19.9812
ltibia 135.572
lfoot -13.5225 -14.3022
ltoes -18.4886
1550
root -0.219547 15.7979 -4.87232 -18.9361 3.45029 -711.801
lowerback 22.0509 -2.7005 -1.6211
upperback 9.15264 -3.61833 4.96482
thorax -1.83014 -1.95261 7.11818
lowerneck -19.2313 -0.905259 -7.90271
upperneck 28.4022 0.706515 2.01912
head 12.6287 -0.276547 2.23684
rclavicle -2.38542e-015 3.81667e-014
rhumerus -36.3705 3.71617 -71.5919
rradius 100.199
rwrist 4.38378
rhand -41.3401 16.0771
rfingers 7.12502
rthumb -14.2593 -13.4134
lclavicle -2.38542e-015 3.81667e-014
lhumerus -37.644 -12.8611 92.0857
lradius 77.8775
lwrist -14.2489
lhand -40.2355 16.3759
lfingers 7.12502
lthumb -13.1948 45.9383
rfemur -84.9861 -21.7566 32.2207
rtibia 137.552
rfoot 9.15562 -18.5949
rtoes 32.0395
lfemur -64.458 52.0977 -19.615
ltibia 135.486
lfoot -12.4504 -14.5602
ltoes -19.7081
1551
root -0.228605 15.794 -4.87222 -19.0097 3.6745 -711.807
lowerback 22.0237 -2.74147 -1.68336
upperback 9.12964 -3.68104 5.01158
thorax -1.82474 -1.98614 7.21866
lowerneck -19.1023 -0.899616 -7.86217
upperneck 28.4195 0.67688 2.05451
head 12.61 -0.280642 2.23838
rclavicle 5.56597e-015 -1.90833e-014
rhumerus -36.2597 4.08441 -71.7894
rradius 100.835
rwrist 5.28515
rhand -41.3139 16.182
rfingers 7.12502
rthumb -14.2341 -13.3102
lclavicle 5.56597e-015 -1.90833e-014
lhumerus -37.7018 -13.2239 92.1202
lradius 78.0299
lwrist -14.2456
lhand -40.0439 15.9004
lfingers 7.12502
lthumb -13.0101 45.4747
rfemur -84.8634 -22.069 32.1603
rtibia 137.729
rfoot 8.66451 -16.993
rtoes 32.2063
lfemur -64.5628 51.2253 -19.5308
ltibia 135.348
lfoot -10.6392 -14.2753
ltoes -19.5479
1552
root -0.238694 15.7933 -4.87116 -19.0811 3.96756 -711.65
lowerback 22.0224 -2.75283 -1.87165
upperback 9.05179 -3.7313 4.98279
thorax -1.89093 -2.01142 7.31021
lowerneck -18.8359 -0.936886 -7.90214
upperneck 28.4064 0.557611 2.22021
head 12.5547 -0.31464 2.28801
rclavicle 7.95139e-016 -3.18055e-014
rhumerus -36.3109 4.40276 -72.0226
rradius 101.478
rwrist 6.07298
rhand -41.2479 16.2818
rfingers 7.12502
rthumb -14.1705 -13.2149
lclavicle 7.95139e-016 -3.18055e-014
lhumerus -37.9012 -13.6624 92.1934
lradius 78.2404
lwrist -14.2832
lhand -39.8313 15.3574
lfingers 7.12502
lthumb -12.8051 44.9446
rfemur -84.7209 -22.5168 31.815
rtibia 137.888
rfoot 8.47091 -14.7767
rtoes 31.5913
lfemur -64.5962 50.1268 -19.6472
ltibia 135.097
lfoot -8.70216 -14.0273
ltoes -17.1684
1553
root -0.251611 15.793 -4.86973 -19.228 4.27547 -711.558
lowerback 22.0339 -2.78194 -2.03765
upperback 9.01838 -3.80105 4.97027
thorax -1.91196 -2.04857 7.41018
lowerneck -18.6365 -0.96249 -7.93509
upperneck 28.4738 0.469184 2.357
head 12.5445 -0.34056 2.33229
rclavicle 1.82882e-014 2.8625e-014
rhumerus -36.3645 4.71097 -72.2834
rradius 102.084
rwrist 6.9308
rhand -41.1966 16.442
rfingers 7.12502
rthumb -14.1211 -13.0582
lclavicle 1.82882e-014 2.8625e-014
lhumerus -38.0357 -14.0604 92.2668
lradius 78.4764
lwrist -14.364
lhand -39.8446 15.3521
lfingers 7.12502
lthumb -12.818 44.9385
rfemur -84.5157 -23.0058 31.5126
rtibia 138.073
rfoot 8.22607 -12.9011
rtoes 30.8244
lfemur -64.5876 48.9028 -19.5827
ltibia 134.779
lfoot -6.63306 -13.9258
ltoes -15.1246
